<?xml version="1.0" encoding="UTF-8" standalone="no"?>
<!DOCTYPE svg PUBLIC "-//W3C//DTD SVG 1.1//EN" "http://www.w3.org/Graphics/SVG/1.1/DTD/svg11.dtd">
<svg width="100%" height="100%" viewBox="0 0 40 40" version="1.1" xmlns="http://www.w3.org/2000/svg" xmlns:xlink="http://www.w3.org/1999/xlink" xml:space="preserve" xmlns:serif="http://www.serif.com/" style="fill-rule:evenodd;clip-rule:evenodd;stroke-linejoin:round;stroke-miterlimit:2;">
    <g transform="matrix(0.0998984,0,0,0.0998984,0.0203173,0.0203173)">
        <clipPath id="_clip1">
            <circle cx="200" cy="200" r="200"/>
        </clipPath>
        <g clip-path="url(#_clip1)">
            <rect x="0" y="0" width="400" height="400" style="fill:rgb(64,186,155);"/>
            <path d="M186.65,185.3C186.65,165.6 174.35,154.75 153.6,154.75L133.6,154.75L133.6,216.7C139.35,217.15 142.85,217.45 151.4,217.45C173.3,217.9 186.65,204.75 186.65,185.3M190.05,285.45C175.995,267.809 163.593,248.913 153,229L133.9,229L133.9,270.2C133.9,285.5 137.4,288.7 144.1,289.65L156.9,291.4L156.9,298.55C150.8,298.55 136.45,297.8 125.3,297.8C114.15,297.8 102.15,298.25 95.5,298.55L95.5,291.4L104.75,289.65C111.15,288.45 114.85,285.5 114.85,270.2L114.85,172.6C114.55,156.95 110.85,154.25 104.4,153.05L95.15,151.4L95.15,144.2L121.1,144.2C131,144.2 143.5,143.45 158.15,143.45C185.95,143.45 207.7,156.25 207.7,183.9C206.834,204.047 192.611,221.303 173,226C183.396,244.726 195.802,262.263 210,278.3C216.024,285.647 224.703,290.337 234.15,291.35L234.15,297.75C230.502,299.095 226.637,299.756 222.75,299.7C210.285,300.029 198.296,294.804 190.05,285.45" style="fill:white;fill-rule:nonzero;"/>
            <path d="M283.3,111.45C278.95,100.9 269.45,93.25 255.2,93.25C246.967,93.057 239.018,96.323 233.3,102.25C225.1,110.55 225.2,119.95 225.2,136.25C225.2,152.55 225.1,161.9 233.3,170.2C239.056,176.077 246.974,179.349 255.2,179.25C264,179.25 271.85,176.4 278.2,169.65C283.7,163.65 285.7,156.65 285.7,145.75L285.7,132.8L256.8,132.8L256.8,143.75L273,143.75L273,148.5C273,153.95 271.85,158.25 268.8,161.8C265.364,165.685 260.385,167.863 255.2,167.75C250.569,167.846 246.104,165.994 242.9,162.65C238.8,158.15 237.85,153.25 237.85,136.3C237.85,119.35 238.85,114.55 242.9,110.05C246.092,106.671 250.551,104.768 255.2,104.8C263.35,104.8 269.05,108.95 271.8,116.15L283.3,111.45Z" style="fill:white;fill-rule:nonzero;"/>
        </g>
    </g>
</svg>
